<svg width="600" height="600" viewBox="0 0 600 600" fill="none" xmlns="http://www.w3.org/2000/svg">
<path d="M250 120C250 92.3858 272.386 70 300 70C327.614 70 350 92.3858 350 120C350 147.614 327.614 170 300 170C272.386 170 250 147.614 250 120Z" fill="white"/>
<path d="M250 300C250 272.386 272.386 250 300 250C327.614 250 350 272.386 350 300C350 327.614 327.614 350 300 350C272.386 350 250 327.614 250 300Z" fill="white"/>
<path d="M250 480C250 452.386 272.386 430 300 430C327.614 430 350 452.386 350 480C350 507.614 327.614 530 300 530C272.386 530 250 507.614 250 480Z" fill="white"/>
</svg>
